<mxfile host="app.diagrams.net" agent="Mozilla/5.0 (Windows NT 10.0; Win64; x64) AppleWebKit/537.36 (KHTML, like Gecko) Chrome/127.0.0.0 Safari/537.36 OPR/113.0.0.0 (Edition std-2)" version="24.7.17">
  <diagram name="PÃ¡gina-1" id="uVgV4P7KdtrNIT0D44ay">
    <mxGraphModel dx="1990" dy="1151" grid="1" gridSize="10" guides="1" tooltips="1" connect="1" arrows="1" fold="1" page="1" pageScale="1" pageWidth="827" pageHeight="1169" math="0" shadow="0">
      <root>
        <mxCell id="0" />
        <mxCell id="1" parent="0" />
        <mxCell id="MBY0N3rzYvSkNJrZaWD6-2" value="Nithel Construction" style="ellipse;whiteSpace=wrap;html=1;fontStyle=0" vertex="1" parent="1">
          <mxGeometry x="360" y="350" width="120" height="80" as="geometry" />
        </mxCell>
        <mxCell id="MBY0N3rzYvSkNJrZaWD6-3" value="Cliente" style="rounded=0;whiteSpace=wrap;html=1;" vertex="1" parent="1">
          <mxGeometry x="220" y="160" width="120" height="60" as="geometry" />
        </mxCell>
        <mxCell id="MBY0N3rzYvSkNJrZaWD6-5" value="" style="curved=1;endArrow=classic;html=1;rounded=0;" edge="1" parent="1">
          <mxGeometry width="50" height="50" relative="1" as="geometry">
            <mxPoint x="289" y="220" as="sourcePoint" />
            <mxPoint x="390" y="330" as="targetPoint" />
            <Array as="points">
              <mxPoint x="280" y="290" />
              <mxPoint x="300" y="290" />
              <mxPoint x="320" y="290" />
              <mxPoint x="340" y="280" />
              <mxPoint x="370" y="250" />
              <mxPoint x="380" y="290" />
            </Array>
          </mxGeometry>
        </mxCell>
        <mxCell id="MBY0N3rzYvSkNJrZaWD6-6" value="Produto" style="rounded=0;whiteSpace=wrap;html=1;" vertex="1" parent="1">
          <mxGeometry x="520" y="160" width="120" height="60" as="geometry" />
        </mxCell>
        <mxCell id="MBY0N3rzYvSkNJrZaWD6-8" value="" style="curved=1;endArrow=classic;html=1;rounded=0;" edge="1" parent="1" source="MBY0N3rzYvSkNJrZaWD6-6">
          <mxGeometry width="50" height="50" relative="1" as="geometry">
            <mxPoint x="570.04" y="231.01999999999998" as="sourcePoint" />
            <mxPoint x="450" y="330" as="targetPoint" />
            <Array as="points">
              <mxPoint x="550" y="290" />
              <mxPoint x="540" y="300" />
              <mxPoint x="490" y="231" />
              <mxPoint x="470" y="300" />
            </Array>
          </mxGeometry>
        </mxCell>
        <mxCell id="MBY0N3rzYvSkNJrZaWD6-9" value="Compra" style="rounded=0;whiteSpace=wrap;html=1;" vertex="1" parent="1">
          <mxGeometry x="360" y="570" width="120" height="60" as="geometry" />
        </mxCell>
        <mxCell id="MBY0N3rzYvSkNJrZaWD6-12" value="" style="curved=1;endArrow=classic;html=1;rounded=0;exitX=0.5;exitY=0;exitDx=0;exitDy=0;" edge="1" parent="1" source="MBY0N3rzYvSkNJrZaWD6-9">
          <mxGeometry width="50" height="50" relative="1" as="geometry">
            <mxPoint x="395" y="540" as="sourcePoint" />
            <mxPoint x="410" y="450" as="targetPoint" />
            <Array as="points">
              <mxPoint x="445" y="540" />
              <mxPoint x="395" y="490" />
            </Array>
          </mxGeometry>
        </mxCell>
      </root>
    </mxGraphModel>
  </diagram>
</mxfile>
